<?xml version="1.0" encoding="UTF-8" standalone="no"?>
<svg
   xmlns:dc="http://purl.org/dc/elements/1.1/"
   xmlns:cc="http://creativecommons.org/ns#"
   xmlns:rdf="http://www.w3.org/1999/02/22-rdf-syntax-ns#"
   xmlns:svg="http://www.w3.org/2000/svg"
   xmlns="http://www.w3.org/2000/svg"
   xmlns:xlink="http://www.w3.org/1999/xlink"
   xmlns:sodipodi="http://sodipodi.sourceforge.net/DTD/sodipodi-0.dtd"
   xmlns:inkscape="http://www.inkscape.org/namespaces/inkscape"
   inkscape:version="1.0 (4035a4fb49, 2020-05-01)"
   sodipodi:docname="button_gui_hover-black.svg"
   id="svg872"
   version="1.1"
   viewBox="0 0 5.8208334 5.8208335"
   height="22"
   width="22">
  <defs
     id="defs866">
    <radialGradient
       inkscape:collect="always"
       xlink:href="#linearGradient8649"
       id="radialGradient8651"
       cx="10.399352"
       cy="4.8820815"
       fx="10.399352"
       fy="4.8820815"
       r="3.4903219"
       gradientTransform="matrix(0.9715183,0,0,0.9715183,107.22768,107.59499)"
       gradientUnits="userSpaceOnUse" />
    <linearGradient
       inkscape:collect="always"
       id="linearGradient8649">
      <stop
         style="stop-color:#ffffff;stop-opacity:1;"
         offset="0"
         id="stop8645" />
      <stop
         style="stop-color:#ffffff;stop-opacity:0;"
         offset="1"
         id="stop8647" />
    </linearGradient>
  </defs>
  <sodipodi:namedview
     units="px"
     inkscape:window-maximized="0"
     inkscape:window-y="35"
     inkscape:window-x="1280"
     inkscape:window-height="1368"
     inkscape:window-width="1280"
     showgrid="false"
     inkscape:document-rotation="0"
     inkscape:current-layer="layer1"
     inkscape:document-units="px"
     inkscape:cy="11.25486"
     inkscape:cx="8.9549683"
     inkscape:zoom="19.288463"
     inkscape:pageshadow="2"
     inkscape:pageopacity="0.0"
     borderopacity="1.0"
     bordercolor="#666666"
     pagecolor="#ffffff"
     id="base" />
  <metadata
     id="metadata869">
    <rdf:RDF>
      <cc:Work
         rdf:about="">
        <dc:format>image/svg+xml</dc:format>
        <dc:type
           rdf:resource="http://purl.org/dc/dcmitype/StillImage" />
        <dc:title></dc:title>
      </cc:Work>
    </rdf:RDF>
  </metadata>
  <g
     transform="translate(-114.42042,-109.42761)"
     id="layer1"
     inkscape:groupmode="layer"
     inkscape:label="Layer 1">
    <path
       id="path7830"
       style="fill:url(#radialGradient8651);fill-opacity:1;stroke:none;stroke-width:0;stroke-linejoin:round;stroke-miterlimit:4;stroke-dasharray:none"
       d="m 117.33084,109.42761 c -0.29316,0 -0.52917,0.23601 -0.52917,0.52917 v 0.33228 a 2.1166666,2.1166666 0 0 0 -0.5457,0.22582 l -0.23461,-0.23461 c -0.2073,-0.20729 -0.54098,-0.20729 -0.74828,0 -0.20729,0.2073 -0.20729,0.54098 0,0.74828 l 0.23461,0.23461 a 2.1166666,2.1166666 0 0 0 -0.22634,0.5457 h -0.33176 c -0.29316,0 -0.52917,0.23601 -0.52917,0.52917 0,0.29315 0.23601,0.52916 0.52917,0.52916 h 0.33176 a 2.1166666,2.1166666 0 0 0 0.22583,0.54622 l -0.2341,0.2341 c -0.20729,0.20729 -0.20729,0.54098 0,0.74827 0.2073,0.2073 0.54098,0.2073 0.74828,0 l 0.23461,-0.23461 a 2.1166666,2.1166666 0 0 0 0.5457,0.22583 v 0.33228 c 0,0.29315 0.23601,0.52916 0.52917,0.52916 0.29315,0 0.52916,-0.23601 0.52916,-0.52916 V 114.387 a 2.1166666,2.1166666 0 0 0 0.54571,-0.22583 l 0.23461,0.23461 c 0.20729,0.2073 0.54098,0.2073 0.74827,0 0.2073,-0.20729 0.2073,-0.54098 0,-0.74827 l -0.23461,-0.23461 a 2.1166666,2.1166666 0 0 0 0.22583,-0.54571 h 0.33228 c 0.29316,0 0.52916,-0.23601 0.52916,-0.52916 0,-0.29316 -0.236,-0.52917 -0.52916,-0.52917 h -0.33228 a 2.1166666,2.1166666 0 0 0 -0.22583,-0.5457 l 0.23461,-0.23461 c 0.2073,-0.2073 0.2073,-0.54098 0,-0.74828 -0.10364,-0.10365 -0.23887,-0.15554 -0.37413,-0.15554 -0.13527,0 -0.27049,0.0519 -0.37414,0.15554 l -0.23461,0.23461 A 2.1166666,2.1166666 0 0 0 117.86,110.28906 v -0.33228 c 0,-0.29316 -0.23601,-0.52917 -0.52916,-0.52917 z m 0,1.71979 a 1.1906249,1.1906249 0 0 1 1.19062,1.19063 1.1906249,1.1906249 0 0 1 -1.19062,1.19062 1.1906249,1.1906249 0 0 1 -1.19063,-1.19062 1.1906249,1.1906249 0 0 1 1.19063,-1.19063 z" />
  </g>
</svg>
