<?xml version="1.0" encoding="UTF-8" standalone="no"?>
<svg
   xmlns:dc="http://purl.org/dc/elements/1.1/"
   xmlns:cc="http://creativecommons.org/ns#"
   xmlns:rdf="http://www.w3.org/1999/02/22-rdf-syntax-ns#"
   xmlns:svg="http://www.w3.org/2000/svg"
   xmlns="http://www.w3.org/2000/svg"
   xmlns:xlink="http://www.w3.org/1999/xlink"
   xmlns:sodipodi="http://sodipodi.sourceforge.net/DTD/sodipodi-0.dtd"
   xmlns:inkscape="http://www.inkscape.org/namespaces/inkscape"
   inkscape:version="1.0 (4035a4fb49, 2020-05-01)"
   sodipodi:docname="button_gui-black.svg"
   id="svg872"
   version="1.1"
   viewBox="0 0 5.8208334 5.8208335"
   height="22"
   width="22">
  <defs
     id="defs866">
    <radialGradient
       inkscape:collect="always"
       xlink:href="#linearGradient8703"
       id="radialGradient8697"
       gradientUnits="userSpaceOnUse"
       gradientTransform="matrix(0.76012338,0,0,0.76012338,115.74414,115.44585)"
       cx="2.0874226"
       cy="-4.0885715"
       fx="2.0874226"
       fy="-4.0885715"
       r="3.4903214" />
    <linearGradient
       id="linearGradient8703"
       inkscape:collect="always">
      <stop
         id="stop8699"
         offset="0"
         style="stop-color:#ffffff;stop-opacity:0.18911755" />
      <stop
         id="stop8701"
         offset="1"
         style="stop-color:#ffffff;stop-opacity:0;" />
    </linearGradient>
  </defs>
  <sodipodi:namedview
     units="px"
     inkscape:window-maximized="0"
     inkscape:window-y="35"
     inkscape:window-x="1280"
     inkscape:window-height="1368"
     inkscape:window-width="1280"
     showgrid="false"
     inkscape:document-rotation="0"
     inkscape:current-layer="layer1"
     inkscape:document-units="px"
     inkscape:cy="11.25486"
     inkscape:cx="8.9549683"
     inkscape:zoom="19.288463"
     inkscape:pageshadow="2"
     inkscape:pageopacity="0.0"
     borderopacity="1.0"
     bordercolor="#666666"
     pagecolor="#ffffff"
     id="base" />
  <metadata
     id="metadata869">
    <rdf:RDF>
      <cc:Work
         rdf:about="">
        <dc:format>image/svg+xml</dc:format>
        <dc:type
           rdf:resource="http://purl.org/dc/dcmitype/StillImage" />
        <dc:title></dc:title>
      </cc:Work>
    </rdf:RDF>
  </metadata>
  <g
     transform="translate(-114.42042,-109.42761)"
     id="layer1"
     inkscape:groupmode="layer"
     inkscape:label="Layer 1">
    <path
       id="path7071"
       style="opacity:1;fill:url(#radialGradient8697);fill-opacity:1;stroke:#000000;stroke-width:0.264583;stroke-linejoin:miter;stroke-miterlimit:4;stroke-dasharray:none;stroke-opacity:0.200351"
       d="m 117.33084,109.55989 c -0.27984,0 -0.50512,0.22528 -0.50512,0.50512 v 0.31717 a 2.0204633,2.0204633 0 0 0 -0.5209,0.21557 l -0.22395,-0.22395 c -0.19787,-0.19787 -0.51639,-0.19787 -0.71426,0 -0.19787,0.19787 -0.19787,0.51639 0,0.71426 l 0.22395,0.22395 a 2.0204633,2.0204633 0 0 0 -0.21606,0.5209 h -0.31668 c -0.27984,0 -0.50512,0.22528 -0.50512,0.50512 0,0.27983 0.22528,0.50511 0.50512,0.50511 h 0.31668 a 2.0204633,2.0204633 0 0 0 0.21556,0.5214 l -0.22345,0.22345 c -0.19787,0.19788 -0.19787,0.5164 0,0.71427 0.19787,0.19787 0.51639,0.19787 0.71426,0 l 0.22395,-0.22395 a 2.0204633,2.0204633 0 0 0 0.5209,0.21556 v 0.31718 c 0,0.27983 0.22528,0.50512 0.50512,0.50512 0.27983,0 0.50511,-0.22529 0.50511,-0.50512 v -0.31718 a 2.0204633,2.0204633 0 0 0 0.5209,-0.21556 l 0.22395,0.22395 c 0.19788,0.19787 0.5164,0.19787 0.71427,0 0.19787,-0.19787 0.19787,-0.51639 0,-0.71427 l -0.22395,-0.22395 a 2.0204633,2.0204633 0 0 0 0.21556,-0.5209 h 0.31718 c 0.27983,0 0.50512,-0.22528 0.50512,-0.50511 0,-0.27984 -0.22529,-0.50512 -0.50512,-0.50512 h -0.31718 a 2.0204633,2.0204633 0 0 0 -0.21556,-0.5209 l 0.22395,-0.22395 c 0.19787,-0.19787 0.19787,-0.51639 0,-0.71426 -0.0989,-0.0989 -0.22802,-0.14848 -0.35713,-0.14848 -0.12912,0 -0.2582,0.0495 -0.35714,0.14848 l -0.22395,0.22395 a 2.0204633,2.0204633 0 0 0 -0.5209,-0.21557 v -0.31717 c 0,-0.27984 -0.22528,-0.50512 -0.50511,-0.50512 z m 0,1.64163 a 1.1365106,1.1365106 0 0 1 1.13651,1.13651 1.1365106,1.1365106 0 0 1 -1.13651,1.13651 1.1365106,1.1365106 0 0 1 -1.13651,-1.13651 1.1365106,1.1365106 0 0 1 1.13651,-1.13651 z" />
  </g>
</svg>
