<?xml version="1.0" encoding="UTF-8" standalone="no"?>
<svg
   xmlns:dc="http://purl.org/dc/elements/1.1/"
   xmlns:cc="http://creativecommons.org/ns#"
   xmlns:rdf="http://www.w3.org/1999/02/22-rdf-syntax-ns#"
   xmlns:svg="http://www.w3.org/2000/svg"
   xmlns="http://www.w3.org/2000/svg"
   xmlns:xlink="http://www.w3.org/1999/xlink"
   xmlns:sodipodi="http://sodipodi.sourceforge.net/DTD/sodipodi-0.dtd"
   xmlns:inkscape="http://www.inkscape.org/namespaces/inkscape"
   sodipodi:docname="button_edit_hover-white.svg"
   inkscape:version="1.0 (4035a4fb49, 2020-05-01)"
   id="svg2322"
   version="1.1"
   viewBox="0 0 5.8208332 5.8208335"
   height="22"
   width="22">
  <defs
     id="defs2316">
    <linearGradient
       id="linearGradient3021"
       inkscape:collect="always">
      <stop
         id="stop3017"
         offset="0"
         style="stop-color:#bebebe;stop-opacity:1" />
      <stop
         id="stop3019"
         offset="1"
         style="stop-color:#808080;stop-opacity:1" />
    </linearGradient>
    <radialGradient
       gradientUnits="userSpaceOnUse"
       r="2.1166666"
       fy="2.8593005"
       fx="2.8133478"
       cy="2.8593005"
       cx="2.8133478"
       id="radialGradient3023"
       xlink:href="#linearGradient3021"
       inkscape:collect="always" />
  </defs>
  <sodipodi:namedview
     inkscape:window-maximized="1"
     inkscape:window-y="35"
     inkscape:window-x="0"
     inkscape:window-height="1368"
     inkscape:window-width="2560"
     units="px"
     showgrid="false"
     inkscape:document-rotation="0"
     inkscape:current-layer="layer1"
     inkscape:document-units="px"
     inkscape:cy="12.037157"
     inkscape:cx="9.3944851"
     inkscape:zoom="38.371"
     inkscape:pageshadow="2"
     inkscape:pageopacity="0.0"
     borderopacity="1.0"
     bordercolor="#666666"
     pagecolor="#ffffff"
     id="base" />
  <metadata
     id="metadata2319">
    <rdf:RDF>
      <cc:Work
         rdf:about="">
        <dc:format>image/svg+xml</dc:format>
        <dc:type
           rdf:resource="http://purl.org/dc/dcmitype/StillImage" />
        <dc:title></dc:title>
      </cc:Work>
    </rdf:RDF>
  </metadata>
  <g
     id="layer1"
     inkscape:groupmode="layer"
     inkscape:label="Layer 1">
    <path
       style="clip-rule:evenodd;fill:url(#radialGradient3023);fill-rule:evenodd;stroke-width:47.8398;image-rendering:optimizeQuality;shape-rendering:geometricPrecision;text-rendering:geometricPrecision;fill-opacity:1"
       inkscape:connector-curvature="0"
       id="path7"
       d="M 4.8718987,3.9620286 C 4.4166151,3.6222848 3.8099903,3.1567578 3.1639905,2.5969197 2.8671064,2.2805545 3.2086346,2.0297928 3.0860415,1.4800843 3.0432721,1.2886115 2.8968389,1.094028 2.7525489,1.0158016 2.5632571,0.91286512 1.974041,0.74174852 1.7043907,0.74263731 1.6609063,0.77943845 1.5854578,0.86308539 1.5230461,0.93330977 1.5574223,0.97615568 2.114494,1.3577677 2.1625319,1.3951006 2.3087857,1.5083507 2.35834,1.5084358 2.3013745,1.7529798 2.2371773,2.028457 2.0820815,2.2484637 1.8404653,2.3949563 1.5067032,2.5970936 1.582331,2.5536281 1.1204437,2.2181514 L 0.82855988,2.0112095 C 0.79471938,2.0848115 0.74802188,2.1584139 0.69668118,2.2783291 0.83230988,2.505714 1.30536,3.1565783 1.5157255,3.2314235 1.9114508,3.3724047 2.2769976,3.077017 2.4935227,3.2925795 2.9475547,3.7344597 3.3166725,4.0496687 3.9926759,4.9078288 4.2817916,5.2540602 5.1627996,4.1790957 4.8718987,3.9620286 Z"
       class="fil0" />
  </g>
</svg>
