<?xml version="1.0" encoding="UTF-8" standalone="no"?>
<svg
   xmlns:dc="http://purl.org/dc/elements/1.1/"
   xmlns:cc="http://creativecommons.org/ns#"
   xmlns:rdf="http://www.w3.org/1999/02/22-rdf-syntax-ns#"
   xmlns:svg="http://www.w3.org/2000/svg"
   xmlns="http://www.w3.org/2000/svg"
   xmlns:xlink="http://www.w3.org/1999/xlink"
   xmlns:sodipodi="http://sodipodi.sourceforge.net/DTD/sodipodi-0.dtd"
   xmlns:inkscape="http://www.inkscape.org/namespaces/inkscape"
   inkscape:version="1.0 (4035a4fb49, 2020-05-01)"
   sodipodi:docname="button_gui_down-black.svg"
   id="svg872"
   version="1.1"
   viewBox="0 0 5.8208334 5.8208335"
   height="22"
   width="22">
  <defs
     id="defs866">
    <radialGradient
       inkscape:collect="always"
       xlink:href="#linearGradient8016"
       id="radialGradient8018"
       cx="21.392597"
       cy="-3.9437952"
       fx="21.392597"
       fy="-3.9437952"
       r="3.4903302"
       gradientUnits="userSpaceOnUse"
       gradientTransform="translate(-0.53198474,-0.10022894)" />
    <linearGradient
       inkscape:collect="always"
       id="linearGradient8016">
      <stop
         style="stop-color:#000000;stop-opacity:0"
         offset="0"
         id="stop8012" />
      <stop
         style="stop-color:#000000;stop-opacity:1"
         offset="1"
         id="stop8014" />
    </linearGradient>
    <filter
       inkscape:collect="always"
       style="color-interpolation-filters:sRGB"
       id="filter7832"
       x="-1.1999998e-06"
       width="1.0000024"
       y="-1.2000002e-06"
       height="1.0000024">
      <feGaussianBlur
         inkscape:collect="always"
         stdDeviation="3.4903216e-06"
         id="feGaussianBlur7834" />
    </filter>
  </defs>
  <sodipodi:namedview
     units="px"
     inkscape:window-maximized="1"
     inkscape:window-y="35"
     inkscape:window-x="0"
     inkscape:window-height="1368"
     inkscape:window-width="2560"
     showgrid="false"
     inkscape:document-rotation="0"
     inkscape:current-layer="layer1"
     inkscape:document-units="px"
     inkscape:cy="11.25486"
     inkscape:cx="8.9549683"
     inkscape:zoom="38.371"
     inkscape:pageshadow="2"
     inkscape:pageopacity="0.0"
     borderopacity="1.0"
     bordercolor="#666666"
     pagecolor="#ffffff"
     id="base" />
  <metadata
     id="metadata869">
    <rdf:RDF>
      <cc:Work
         rdf:about="">
        <dc:format>image/svg+xml</dc:format>
        <dc:type
           rdf:resource="http://purl.org/dc/dcmitype/StillImage" />
        <dc:title></dc:title>
      </cc:Work>
    </rdf:RDF>
  </metadata>
  <g
     transform="translate(-114.42042,-109.42761)"
     id="layer1"
     inkscape:groupmode="layer"
     inkscape:label="Layer 1">
    <path
       transform="matrix(0.83385349,0,0,0.83385349,99.936143,115.71015)"
       d="m 20.860611,-7.5343451 c -0.35157,0 -0.634604,0.2830333 -0.634604,0.6346039 v 0.3984865 a 2.5384155,2.5384155 0 0 0 -0.654435,0.2708222 l -0.281357,-0.2813576 c -0.248598,-0.2485979 -0.648772,-0.2485979 -0.89737,0 -0.248598,0.248598 -0.248598,0.6487716 0,0.8973695 l 0.281358,0.2813576 a 2.5384155,2.5384155 0 0 0 -0.271442,0.6544352 h -0.397867 c -0.35157,0 -0.634604,0.2830333 -0.634604,0.6346039 0,0.3515705 0.283034,0.6346037 0.634604,0.6346037 h 0.397867 a 2.5384155,2.5384155 0 0 0 0.270822,0.655055 l -0.280738,0.280738 c -0.248598,0.2485977 -0.248598,0.6487713 0,0.8973694 0.248598,0.2485978 0.648772,0.2485978 0.89737,0 l 0.281357,-0.2813576 a 2.5384155,2.5384155 0 0 0 0.654435,0.2708222 v 0.3984865 c 0,0.35157051 0.283034,0.63460381 0.634604,0.63460381 0.351571,0 0.634605,-0.2830333 0.634605,-0.63460381 v -0.3984865 a 2.5384155,2.5384155 0 0 0 0.654436,-0.2708222 l 0.281358,0.2813576 c 0.248597,0.2485978 0.648771,0.2485978 0.89737,0 0.248597,-0.2485981 0.248597,-0.6487717 0,-0.8973694 L 23.047022,-2.754985 a 2.5384155,2.5384155 0 0 0 0.270822,-0.6544352 h 0.398487 c 0.351571,0 0.634603,-0.2830332 0.634603,-0.6346037 0,-0.3515706 -0.283032,-0.6346039 -0.634603,-0.6346039 H 23.317844 A 2.5384155,2.5384155 0 0 0 23.047022,-5.333063 l 0.281358,-0.2813576 c 0.248597,-0.2485979 0.248597,-0.6487714 0,-0.8973695 -0.1243,-0.1242989 -0.286469,-0.1865388 -0.448685,-0.1865388 -0.162217,0 -0.324386,0.06224 -0.448685,0.1865388 l -0.281358,0.2813576 a 2.5384155,2.5384155 0 0 0 -0.654436,-0.2708222 v -0.3984865 c 0,-0.3515706 -0.283034,-0.6346039 -0.634605,-0.6346039 z m 0,2.0624625 a 1.4278586,1.4278586 0 0 1 1.42786,1.4278587 1.4278586,1.4278586 0 0 1 -1.42786,1.4278586 1.4278586,1.4278586 0 0 1 -1.427858,-1.4278586 1.4278586,1.4278586 0 0 1 1.427858,-1.4278587 z"
       style="opacity:1;fill:url(#radialGradient8018);fill-opacity:1;stroke:none;stroke-width:0;stroke-linejoin:round;stroke-miterlimit:4;stroke-dasharray:none;filter:url(#filter7832)"
       id="path7820" />
  </g>
</svg>
