<?xml version="1.0" encoding="UTF-8" standalone="no"?>
<svg
   xmlns:dc="http://purl.org/dc/elements/1.1/"
   xmlns:cc="http://creativecommons.org/ns#"
   xmlns:rdf="http://www.w3.org/1999/02/22-rdf-syntax-ns#"
   xmlns:svg="http://www.w3.org/2000/svg"
   xmlns="http://www.w3.org/2000/svg"
   xmlns:xlink="http://www.w3.org/1999/xlink"
   xmlns:sodipodi="http://sodipodi.sourceforge.net/DTD/sodipodi-0.dtd"
   xmlns:inkscape="http://www.inkscape.org/namespaces/inkscape"
   sodipodi:docname="led_off.svg"
   inkscape:version="1.0 (4035a4fb49, 2020-05-01)"
   id="svg895"
   version="1.1"
   viewBox="0 0 3.7041666 3.7041668"
   height="14"
   width="14">
  <defs
     id="defs889">
    <radialGradient
       inkscape:collect="always"
       xlink:href="#linearGradient1012"
       id="radialGradient1014"
       cx="2.1166668"
       cy="2.1166666"
       fx="2.1166668"
       fy="2.1166666"
       r="2.1244488"
       gradientUnits="userSpaceOnUse"
       gradientTransform="matrix(0.77829435,0,0,0.77829435,0.46879247,0.46879251)" />
    <linearGradient
       inkscape:collect="always"
       id="linearGradient1012">
      <stop
         style="stop-color:#cccccc;stop-opacity:1"
         offset="0"
         id="stop1008" />
      <stop
         style="stop-color:#666666;stop-opacity:1"
         offset="1"
         id="stop1010" />
    </linearGradient>
    <linearGradient
       inkscape:collect="always"
       xlink:href="#linearGradient1193"
       id="linearGradient1195"
       x1="17.395956"
       y1="17.395958"
       x2="9.3498402"
       y2="9.3498411"
       gradientUnits="userSpaceOnUse" />
    <linearGradient
       inkscape:collect="always"
       id="linearGradient1193">
      <stop
         style="stop-color:#000000;stop-opacity:1;"
         offset="0"
         id="stop1189" />
      <stop
         style="stop-color:#000000;stop-opacity:0;"
         offset="1"
         id="stop1191" />
    </linearGradient>
  </defs>
  <sodipodi:namedview
     inkscape:window-maximized="1"
     inkscape:window-y="35"
     inkscape:window-x="0"
     inkscape:window-height="1368"
     inkscape:window-width="2560"
     units="px"
     showgrid="false"
     inkscape:document-rotation="0"
     inkscape:current-layer="layer1"
     inkscape:document-units="px"
     inkscape:cy="8.1800165"
     inkscape:cx="5.7199018"
     inkscape:zoom="54.264789"
     inkscape:pageshadow="2"
     inkscape:pageopacity="0.0"
     borderopacity="1.0"
     bordercolor="#666666"
     pagecolor="#ffffff"
     id="base" />
  <metadata
     id="metadata892">
    <rdf:RDF>
      <cc:Work
         rdf:about="">
        <dc:format>image/svg+xml</dc:format>
        <dc:type
           rdf:resource="http://purl.org/dc/dcmitype/StillImage" />
        <dc:title></dc:title>
      </cc:Work>
    </rdf:RDF>
  </metadata>
  <g
     id="layer1"
     inkscape:groupmode="layer"
     inkscape:label="Layer 1">
    <g
       id="g1448"
       transform="matrix(0.87499996,0,0,0.87499996,-19.763392,9.3910601e-5)"
       inkscape:export-filename="/home/terence/Documents/Git/carla/resources/bitmaps/led_off.png"
       inkscape:export-xdpi="90"
       inkscape:export-ydpi="90">
      <g
         transform="translate(22.587219,3.7735107e-4)"
         id="g1258">
        <path
           id="path10"
           style="fill:url(#radialGradient1014);fill-opacity:1;stroke:#2d2d2d;stroke-width:0.264523;stroke-linejoin:round;stroke-miterlimit:4;stroke-dasharray:none;stroke-opacity:1"
           d="M 4.1005873,2.1161821 A 1.9844054,1.9844054 0 0 1 2.1161821,4.1005873 1.9844054,1.9844054 0 0 1 0.13177672,2.1161821 1.9844054,1.9844054 0 0 1 2.1161821,0.13177691 1.9844054,1.9844054 0 0 1 4.1005873,2.1161821 Z" />
        <path
           id="path1100"
           style="opacity:0.25;fill:#ffffff;fill-opacity:1;stroke:#e040fb;stroke-width:0;stroke-linejoin:round;stroke-miterlimit:4;stroke-dasharray:none;stroke-opacity:1"
           d="M 7.90625,1 A 6.9999984,6.9999984 0 0 0 1,8 6.9999984,6.9999984 0 0 0 3.3867188,13.263672 6.9999984,6.9999984 0 0 1 1.6503906,8.6503906 a 6.9999984,6.9999984 0 0 1 7,-7 A 6.9999984,6.9999984 0 0 1 13.263672,3.3867188 6.9999984,6.9999984 0 0 0 8,1 6.9999984,6.9999984 0 0 0 7.90625,1 Z"
           transform="scale(0.26458333)" />
        <path
           id="path1112"
           style="opacity:1;fill:url(#linearGradient1195);fill-opacity:1;stroke:none;stroke-width:0;stroke-linejoin:round;stroke-miterlimit:4;stroke-dasharray:none;stroke-opacity:1"
           d="m 12.492188,2.6308594 a 6.9999984,6.9999984 0 0 1 1.638671,4.5 A 6.9999984,6.9999984 0 0 1 7.1328125,14.130859 6.9999984,6.9999984 0 0 1 2.6347656,12.494141 6.9999984,6.9999984 0 0 0 8,15 6.9999984,6.9999984 0 0 0 15,8 6.9999984,6.9999984 0 0 0 12.492188,2.6308594 Z"
           transform="scale(0.26458333)" />
      </g>
    </g>
  </g>
</svg>
