<?xml version="1.0" encoding="UTF-8"?>
<!DOCTYPE svg PUBLIC "-//W3C//DTD SVG 1.1//EN" "http://www.w3.org/Graphics/SVG/1.1/DTD/svg11.dtd">
<!-- Creator: CorelDRAW -->
<svg xmlns="http://www.w3.org/2000/svg" xml:space="preserve" width="4.7412mm" height="4.7625mm" style="shape-rendering:geometricPrecision; text-rendering:geometricPrecision; image-rendering:optimizeQuality; fill-rule:evenodd; clip-rule:evenodd"
viewBox="0 0 0.0991055 0.0995508"
 xmlns:xlink="http://www.w3.org/1999/xlink">
 <defs>
  <style type="text/css">
   <![CDATA[
    .fil0 {fill:gray}
   ]]>
  </style>
 </defs>
 <g id="Layer_x0020_1">
  <metadata id="CorelCorpID_0Corel-Layer"/>
  <path class="fil0" d="M0.0977447 0.0757067c-0.0106585,-0.00798914 -0.02486,-0.0189361 -0.0399833,-0.0321008 -0.00695026,-0.00743939 0.00104515,-0.0133361 -0.00182484,-0.0262626 -0.00100126,-0.00450252 -0.00442936,-0.00907819 -0.00780729,-0.0109177 -0.00443145,-0.00242057 -0.0182254,-0.00644441 -0.0245381,-0.00642351 -0.00101798,0.000865386 -0.00278429,0.00283236 -0.00424541,0.0044837 0.000804767,0.00100753 0.0138462,0.00998121 0.0149708,0.0108591 0.00342392,0.00266305 0.00458404,0.00266514 0.00325042,0.00841557 -0.00150293,0.00647785 -0.00513379,0.0116514 -0.0107902,0.0150962 -0.00781356,0.00475335 -0.00604307,0.00373119 -0.0168562,-0.00415762l-0.00683321 -0.00486623c-0.000792226,0.00173077 -0.00188545,0.00346154 -0.00308738,0.00628137 0.00317517,0.005347 0.0142496,0.0206522 0.0191744,0.0224122 0.00926423,0.00331522 0.0178219,-0.00363086 0.0228909,0.00143813 0.0106292,0.0103909 0.0192705,0.0178031 0.0350962,0.0379829 0.00676841,0.00814174 0.0273934,-0.0171363 0.0205832,-0.0222408z"/>
 </g>
</svg>
