<?xml version="1.0" encoding="UTF-8" standalone="no"?>
<!-- Creator: CorelDRAW -->

<svg
   xmlns:dc="http://purl.org/dc/elements/1.1/"
   xmlns:cc="http://creativecommons.org/ns#"
   xmlns:rdf="http://www.w3.org/1999/02/22-rdf-syntax-ns#"
   xmlns:svg="http://www.w3.org/2000/svg"
   xmlns="http://www.w3.org/2000/svg"
   xmlns:sodipodi="http://sodipodi.sourceforge.net/DTD/sodipodi-0.dtd"
   xmlns:inkscape="http://www.inkscape.org/namespaces/inkscape"
   xml:space="preserve"
   width="16"
   height="16"
   style="clip-rule:evenodd;fill-rule:evenodd;image-rendering:optimizeQuality;shape-rendering:geometricPrecision;text-rendering:geometricPrecision"
   viewBox="0 0 0.08848954 0.0884896"
   version="1.1"
   id="svg10"
   sodipodi:docname="pb_configure_16.svg"
   inkscape:version="0.92.2 2405546, 2018-03-11"><metadata
   id="metadata14"><rdf:RDF><cc:Work
       rdf:about=""><dc:format>image/svg+xml</dc:format><dc:type
         rdf:resource="http://purl.org/dc/dcmitype/StillImage" /><dc:title></dc:title></cc:Work></rdf:RDF></metadata><sodipodi:namedview
   pagecolor="#ffffff"
   bordercolor="#666666"
   borderopacity="1"
   objecttolerance="10"
   gridtolerance="10"
   guidetolerance="10"
   inkscape:pageopacity="0"
   inkscape:pageshadow="2"
   inkscape:window-width="1600"
   inkscape:window-height="873"
   id="namedview12"
   showgrid="false"
   units="px"
   inkscape:zoom="13.111112"
   inkscape:cx="-1.222455"
   inkscape:cy="8.9999996"
   inkscape:window-x="0"
   inkscape:window-y="27"
   inkscape:window-maximized="1"
   inkscape:current-layer="svg10" />
 <defs
   id="defs4">
  <style
   type="text/css"
   id="style2">
   <![CDATA[
    .fil0 {fill:gray}
   ]]>
  </style>
 </defs>
 <g
   id="Layer_x0020_1"
   transform="matrix(0.89288497,0,0,0.88891666,0,-2.8902105e-6)"
   style="stroke-width:1.12246215">
  <metadata
   id="CorelCorpID_0Corel-Layer" />
  <path
   class="fil0"
   d="M 0.0977447,0.0757067 C 0.0870862,0.06771756 0.0728847,0.0567706 0.0577614,0.0436059 0.05081114,0.03616651 0.05880655,0.0302698 0.05593656,0.0173433 0.0549353,0.01284078 0.0515072,0.00826511 0.04812927,0.0064256 0.04369782,0.00400503 0.02990387,-1.881e-5 0.02359117,2.09e-6 c -0.001018,8.65386e-4 -0.0027843,0.00283236 -0.0042454,0.0044837 8.0477e-4,0.00100753 0.0138462,0.00998121 0.0149708,0.0108591 0.0034239,0.0026631 0.004584,0.0026651 0.0032504,0.0084156 -0.0015029,0.0064779 -0.0051338,0.0116514 -0.0107902,0.0150962 -0.0078136,0.0047533 -0.0060431,0.0037312 -0.0168562,-0.0041576 L 0.00308737,0.02983281 C 0.00229514,0.03156358 0.00120192,0.03329435 0,0.03611418 c 0.00317516,0.005347 0.01424959,0.0206522 0.01917439,0.0224122 0.0092642,0.0033152 0.0178219,-0.0036309 0.0228909,0.0014381 0.0106292,0.0103909 0.0192705,0.0178031 0.0350962,0.0379829 0.0067684,0.0081417 0.0273934,-0.0171363 0.02058321,-0.02224068 z"
   id="path7"
   inkscape:connector-curvature="0"
   style="fill:#808080;stroke-width:1.12246215" />
 </g>
</svg>