<?xml version="1.0" encoding="UTF-8" standalone="no"?>
<!-- Created with Inkscape (http://www.inkscape.org/) -->

<svg
   xmlns:dc="http://purl.org/dc/elements/1.1/"
   xmlns:cc="http://creativecommons.org/ns#"
   xmlns:rdf="http://www.w3.org/1999/02/22-rdf-syntax-ns#"
   xmlns:svg="http://www.w3.org/2000/svg"
   xmlns="http://www.w3.org/2000/svg"
   xmlns:sodipodi="http://sodipodi.sourceforge.net/DTD/sodipodi-0.dtd"
   xmlns:inkscape="http://www.inkscape.org/namespaces/inkscape"
   width="12"
   height="12"
   id="svg3970"
   version="1.1"
   inkscape:version="0.48.0 r9654"
   sodipodi:docname="generic_app.svg">
  <defs
     id="defs3972">
    <inkscape:perspective
       sodipodi:type="inkscape:persp3d"
       inkscape:vp_x="0 : 526.18109 : 1"
       inkscape:vp_y="0 : 1000 : 0"
       inkscape:vp_z="744.09448 : 526.18109 : 1"
       inkscape:persp3d-origin="372.04724 : 350.78739 : 1"
       id="perspective3978" />
    <inkscape:perspective
       id="perspective3942"
       inkscape:persp3d-origin="0.5 : 0.33333333 : 1"
       inkscape:vp_z="1 : 0.5 : 1"
       inkscape:vp_y="0 : 1000 : 0"
       inkscape:vp_x="0 : 0.5 : 1"
       sodipodi:type="inkscape:persp3d" />
  </defs>
  <sodipodi:namedview
     id="base"
     pagecolor="#ffffff"
     bordercolor="#666666"
     borderopacity="1.0"
     inkscape:pageopacity="0.0"
     inkscape:pageshadow="2"
     inkscape:zoom="15.839192"
     inkscape:cx="6.7741578"
     inkscape:cy="4.682888"
     inkscape:document-units="px"
     inkscape:current-layer="layer1"
     showgrid="false"
     inkscape:window-width="881"
     inkscape:window-height="654"
     inkscape:window-x="135"
     inkscape:window-y="27"
     inkscape:window-maximized="0" />
  <metadata
     id="metadata3975">
    <rdf:RDF>
      <cc:Work
         rdf:about="">
        <dc:format>image/svg+xml</dc:format>
        <dc:type
           rdf:resource="http://purl.org/dc/dcmitype/StillImage" />
        <dc:title />
      </cc:Work>
    </rdf:RDF>
  </metadata>
  <g
     inkscape:label="Layer 1"
     inkscape:groupmode="layer"
     id="layer1"
     transform="translate(-369,-297.79076)">
    <rect
       style="opacity:0;fill:#ffffff;fill-opacity:1;stroke:none;display:inline"
       id="rect6036"
       width="12"
       height="12"
       x="369"
       y="297.79077"
       inkscape:export-filename="/home/hbons/Intel/git/moblin-icon-theme/image.png"
       inkscape:export-xdpi="90"
       inkscape:export-ydpi="90" />
    <rect
       transform="matrix(0.70710678,-0.70710678,0.70710678,0.70710678,0,0)"
       y="476.76953"
       x="47.158176"
       height="6.4023466"
       width="6.4023466"
       id="rect6042"
       style="color:#000000;fill:none;stroke:#808080;stroke-width:0.99999994000000003;stroke-linecap:round;stroke-linejoin:round;stroke-miterlimit:4;stroke-opacity:1;stroke-dasharray:none;stroke-dashoffset:0;marker:none;visibility:visible;display:inline;overflow:visible;enable-background:accumulate" />
    <path
       sodipodi:open="true"
       sodipodi:end="5.1447968"
       sodipodi:start="2.7118304"
       transform="matrix(0.41904762,0,0,0.41904762,36.31905,214.50967)"
       d="m 809.40926,221.7343 a 6.5625,6.5625 0 0 1 8.71581,-8.69278"
       sodipodi:ry="6.5625"
       sodipodi:rx="6.5625"
       sodipodi:cy="219"
       sodipodi:cx="815.375"
       id="path6065"
       style="color:#000000;fill:none;stroke:#808080;stroke-width:1.19318187000000009;stroke-linecap:round;stroke-linejoin:round;stroke-miterlimit:4;stroke-opacity:1;stroke-dasharray:none;stroke-dashoffset:0;marker:none;visibility:visible;display:inline;overflow:visible;enable-background:accumulate"
       sodipodi:type="arc" />
    <path
       sodipodi:type="arc"
       style="color:#000000;fill:#808080;stroke:#808080;stroke-width:1.19318187000000009;stroke-linecap:round;stroke-linejoin:round;stroke-miterlimit:4;stroke-opacity:1;stroke-dasharray:none;stroke-dashoffset:0;marker:none;visibility:visible;display:inline;overflow:visible;enable-background:accumulate"
       id="path6067"
       sodipodi:cx="815.375"
       sodipodi:cy="219"
       sodipodi:rx="6.5625"
       sodipodi:ry="6.5625"
       d="m 810.39734,223.2766 a 6.5625,6.5625 0 0 1 9.50947,-9.02308 L 815.375,219 z"
       transform="matrix(-0.41904762,0,0,-0.41904762,714.1803,393.55253)"
       sodipodi:start="2.4318052"
       sodipodi:end="5.4746539" />
    <path
       transform="matrix(0.72725935,0,0,0.72726915,-213.44374,147.55459)"
       d="m 807.75,216.1875 a 0.6875,0.6875 0 1 1 -1.375,0 0.6875,0.6875 0 1 1 1.375,0 z"
       sodipodi:ry="0.6875"
       sodipodi:rx="0.6875"
       sodipodi:cy="216.1875"
       sodipodi:cx="807.0625"
       id="path6069"
       style="color:#000000;fill:#808080;fill-opacity:1;stroke:none;stroke-width:1;marker:none;visibility:visible;display:inline;overflow:visible;enable-background:accumulate"
       sodipodi:type="arc" />
    <path
       sodipodi:type="arc"
       style="color:#000000;fill:#808080;fill-opacity:1;stroke:none;stroke-width:1;marker:none;visibility:visible;display:inline;overflow:visible;enable-background:accumulate"
       id="path6071"
       sodipodi:cx="807.0625"
       sodipodi:cy="216.1875"
       sodipodi:rx="0.6875"
       sodipodi:ry="0.6875"
       d="m 807.75,216.1875 a 0.6875,0.6875 0 1 1 -1.375,0 0.6875,0.6875 0 1 1 1.375,0 z"
       transform="matrix(0.72725935,0,0,0.72726915,-212.19374,146.77335)" />
    <path
       transform="matrix(0.72725935,0,0,0.72726915,-211.44374,145.5546)"
       d="m 807.75,216.1875 a 0.6875,0.6875 0 1 1 -1.375,0 0.6875,0.6875 0 1 1 1.375,0 z"
       sodipodi:ry="0.6875"
       sodipodi:rx="0.6875"
       sodipodi:cy="216.1875"
       sodipodi:cx="807.0625"
       id="path6073"
       style="color:#000000;fill:#808080;fill-opacity:1;stroke:none;stroke-width:1;marker:none;visibility:visible;display:inline;overflow:visible;enable-background:accumulate"
       sodipodi:type="arc" />
    <path
       sodipodi:type="arc"
       style="color:#000000;fill:#808080;fill-opacity:1;stroke:none;stroke-width:1;marker:none;visibility:visible;display:inline;overflow:visible;enable-background:accumulate"
       id="path6075"
       sodipodi:cx="807.0625"
       sodipodi:cy="216.1875"
       sodipodi:rx="0.6875"
       sodipodi:ry="0.6875"
       d="m 807.75,216.1875 a 0.6875,0.6875 0 1 1 -1.375,0 0.6875,0.6875 0 1 1 1.375,0 z"
       transform="matrix(0.72725935,0,0,0.72726915,-211.44374,144.0546)" />
    <path
       sodipodi:type="arc"
       style="color:#000000;fill:#808080;fill-opacity:1;stroke:none;stroke-width:1;marker:none;visibility:visible;display:inline;overflow:visible;enable-background:accumulate"
       id="path6077"
       sodipodi:cx="807.0625"
       sodipodi:cy="216.1875"
       sodipodi:rx="0.6875"
       sodipodi:ry="0.6875"
       d="m 807.75,216.1875 a 0.6875,0.6875 0 1 1 -1.375,0 0.6875,0.6875 0 1 1 1.375,0 z"
       transform="matrix(0.72725935,0,0,0.72726915,-211.84999,148.05459)" />
    <path
       transform="matrix(0.72725935,0,0,0.72726915,-211.00624,146.80459)"
       d="m 807.75,216.1875 a 0.6875,0.6875 0 1 1 -1.375,0 0.6875,0.6875 0 1 1 1.375,0 z"
       sodipodi:ry="0.6875"
       sodipodi:rx="0.6875"
       sodipodi:cy="216.1875"
       sodipodi:cx="807.0625"
       id="path6079"
       style="color:#000000;fill:#808080;fill-opacity:1;stroke:none;stroke-width:1;marker:none;visibility:visible;display:inline;overflow:visible;enable-background:accumulate"
       sodipodi:type="arc" />
    <path
       sodipodi:type="arc"
       style="color:#000000;fill:#808080;fill-opacity:1;stroke:none;stroke-width:1;marker:none;visibility:visible;display:inline;overflow:visible;enable-background:accumulate"
       id="path6081"
       sodipodi:cx="807.0625"
       sodipodi:cy="216.1875"
       sodipodi:rx="0.6875"
       sodipodi:ry="0.6875"
       d="m 807.75,216.1875 a 0.6875,0.6875 0 1 1 -1.375,0 0.6875,0.6875 0 1 1 1.375,0 z"
       transform="matrix(0.72725935,0,0,0.72726915,-209.72499,146.11709)" />
    <path
       transform="matrix(0.72725935,0,0,0.72726915,-212.03749,149.49209)"
       d="m 807.75,216.1875 a 0.6875,0.6875 0 1 1 -1.375,0 0.6875,0.6875 0 1 1 1.375,0 z"
       sodipodi:ry="0.6875"
       sodipodi:rx="0.6875"
       sodipodi:cy="216.1875"
       sodipodi:cx="807.0625"
       id="path6083"
       style="color:#000000;fill:#808080;fill-opacity:1;stroke:none;stroke-width:1;marker:none;visibility:visible;display:inline;overflow:visible;enable-background:accumulate"
       sodipodi:type="arc" />
    <path
       sodipodi:end="5.4746539"
       sodipodi:start="2.4318052"
       transform="matrix(-0.41904762,0,0,-0.41904762,714.1803,393.55253)"
       d="m 810.39734,223.2766 a 6.5625,6.5625 0 0 1 9.50947,-9.02308 L 815.375,219 z"
       sodipodi:ry="6.5625"
       sodipodi:rx="6.5625"
       sodipodi:cy="219"
       sodipodi:cx="815.375"
       id="path6085"
       style="color:#000000;fill:#808080;fill-opacity:1;stroke:none;stroke-width:1.19318187000000009;marker:none;visibility:visible;display:inline;overflow:visible;enable-background:accumulate"
       sodipodi:type="arc" />
  </g>
</svg>
