<?xml version="1.0" encoding="UTF-8" standalone="no"?>
<!-- Created with Inkscape (http://www.inkscape.org/) -->

<svg
   xmlns:dc="http://purl.org/dc/elements/1.1/"
   xmlns:cc="http://creativecommons.org/ns#"
   xmlns:rdf="http://www.w3.org/1999/02/22-rdf-syntax-ns#"
   xmlns:svg="http://www.w3.org/2000/svg"
   xmlns="http://www.w3.org/2000/svg"
   xmlns:sodipodi="http://sodipodi.sourceforge.net/DTD/sodipodi-0.dtd"
   xmlns:inkscape="http://www.inkscape.org/namespaces/inkscape"
   width="16"
   height="16"
   id="svg3829"
   version="1.1"
   inkscape:version="0.92.2 2405546, 2018-03-11"
   sodipodi:docname="pb_hardware_16.svg">
  <defs
     id="defs3831">
    <inkscape:perspective
       sodipodi:type="inkscape:persp3d"
       inkscape:vp_x="0 : 526.18109 : 1"
       inkscape:vp_y="0 : 1000 : 0"
       inkscape:vp_z="744.09448 : 526.18109 : 1"
       inkscape:persp3d-origin="372.04724 : 350.78739 : 1"
       id="perspective3837" />
    <inkscape:perspective
       id="perspective3815"
       inkscape:persp3d-origin="0.5 : 0.33333333 : 1"
       inkscape:vp_z="1 : 0.5 : 1"
       inkscape:vp_y="0 : 1000 : 0"
       inkscape:vp_x="0 : 0.5 : 1"
       sodipodi:type="inkscape:persp3d" />
  </defs>
  <sodipodi:namedview
     id="base"
     pagecolor="#ffffff"
     bordercolor="#666666"
     borderopacity="1.0"
     inkscape:pageopacity="0.0"
     inkscape:pageshadow="2"
     inkscape:zoom="32"
     inkscape:cx="-2.8251819"
     inkscape:cy="6.3544722"
     inkscape:document-units="px"
     inkscape:current-layer="layer1"
     showgrid="false"
     inkscape:window-width="1600"
     inkscape:window-height="873"
     inkscape:window-x="0"
     inkscape:window-y="27"
     inkscape:window-maximized="1" />
  <metadata
     id="metadata3834">
    <rdf:RDF>
      <cc:Work
         rdf:about="">
        <dc:format>image/svg+xml</dc:format>
        <dc:type
           rdf:resource="http://purl.org/dc/dcmitype/StillImage" />
        <dc:title />
      </cc:Work>
    </rdf:RDF>
  </metadata>
  <g
     inkscape:label="Layer 1"
     inkscape:groupmode="layer"
     id="layer1"
     transform="translate(-388.28571,-622.38001)">
    <rect
       style="display:inline;opacity:0;fill:#808080;fill-opacity:0;stroke:none;stroke-width:0.49851313"
       id="rect10647-9"
       width="16"
       height="15.999964"
       x="388.32138"
       y="622.38"
       inkscape:label="bbox" />
    <path
       inkscape:connector-curvature="0"
       id="path10754-3"
       d="m 392.78571,637.37289 v -1.49288"
       style="fill:#808080;fill-opacity:0;stroke:#808080;stroke-width:1;stroke-linecap:round;stroke-linejoin:miter;stroke-miterlimit:4;stroke-dasharray:none;stroke-opacity:1"
       sodipodi:nodetypes="cc" />
    <path
       inkscape:connector-curvature="0"
       style="fill:#808080;fill-opacity:0;stroke:#808080;stroke-width:1;stroke-linecap:round;stroke-linejoin:miter;stroke-miterlimit:4;stroke-dasharray:none;stroke-opacity:1"
       d="m 394.78571,637.37289 v -1.49288"
       id="path10756-0"
       sodipodi:nodetypes="cc" />
    <g
       id="g4534">
      <path
         style="color:#000000;display:inline;overflow:visible;visibility:visible;fill:#808080;fill-opacity:0;fill-rule:nonzero;stroke:#808080;stroke-width:1;stroke-linecap:round;stroke-linejoin:round;stroke-miterlimit:4;stroke-dasharray:none;stroke-dashoffset:0;stroke-opacity:1;marker:none;enable-background:accumulate"
         d="m 391.51299,627.88006 h -2.72728 v 7.99995 h 2 v 2 h 6 v -2 h 7 v -7.99986 h -1.14631"
         id="path10704-0"
         sodipodi:nodetypes="cccccccccc"
         inkscape:connector-curvature="0" />
      <g
         id="g4527">
        <path
           sodipodi:nodetypes="cccc"
           id="path10686-6"
           d="m 395.78576,631.38001 v -5.5 h 4.9999 v 5.5"
           style="color:#000000;display:inline;overflow:visible;visibility:visible;fill:#808080;fill-opacity:0;stroke:#808080;stroke-width:1;stroke-linecap:round;stroke-linejoin:round;stroke-miterlimit:0.2;stroke-dasharray:none;stroke-dashoffset:0;stroke-opacity:1;marker:none;enable-background:accumulate"
           inkscape:connector-curvature="0" />
        <path
           style="color:#000000;clip-rule:nonzero;display:inline;overflow:visible;visibility:visible;opacity:1;isolation:auto;mix-blend-mode:normal;color-interpolation:sRGB;color-interpolation-filters:linearRGB;solid-color:#000000;solid-opacity:1;fill:#808080;fill-opacity:1;fill-rule:nonzero;stroke:none;stroke-width:1;stroke-linecap:round;stroke-linejoin:round;stroke-miterlimit:4;stroke-dasharray:none;stroke-dashoffset:0;stroke-opacity:1;paint-order:normal;color-rendering:auto;image-rendering:auto;shape-rendering:auto;text-rendering:auto;enable-background:accumulate"
           d="M 11 7 A 2 2 0 0 0 9 9 A 2 2 0 0 0 11 11 A 2 2 0 0 0 13 9 A 2 2 0 0 0 11 7 z M 10.5 8 L 11.5 8 C 11.777 8 12 8.223 12 8.5 L 12 9.5 C 12 9.777 11.777 10 11.5 10 L 10.5 10 C 10.223 10 10 9.777 10 9.5 L 10 8.5 C 10 8.223 10.223 8 10.5 8 z "
           transform="translate(388.28571,622.38001)"
           id="path4541" />
        <path
           style="color:#000000;clip-rule:nonzero;display:inline;overflow:visible;visibility:visible;opacity:1;isolation:auto;mix-blend-mode:normal;color-interpolation:sRGB;color-interpolation-filters:linearRGB;solid-color:#000000;solid-opacity:1;fill:#808080;fill-opacity:1;fill-rule:nonzero;stroke:none;stroke-width:1;stroke-linecap:round;stroke-linejoin:round;stroke-miterlimit:4;stroke-dasharray:none;stroke-dashoffset:0;stroke-opacity:1;paint-order:normal;color-rendering:auto;image-rendering:auto;shape-rendering:auto;text-rendering:auto;enable-background:accumulate"
           d="M 6 7 A 2 2 0 0 0 4 9 A 2 2 0 0 0 6 11 A 2 2 0 0 0 8 9 A 2 2 0 0 0 6 7 z M 5.5 8 L 6.5 8 C 6.777 8 7 8.223 7 8.5 L 7 9.5 C 7 9.777 6.777 10 6.5 10 L 5.5 10 C 5.223 10 5 9.777 5 9.5 L 5 8.5 C 5 8.223 5.223 8 5.5 8 z "
           transform="translate(388.28571,622.38001)"
           id="path4541-3" />
      </g>
    </g>
  </g>
</svg>
