<?xml version="1.0" encoding="UTF-8" standalone="no"?>
<!-- Created with Inkscape (http://www.inkscape.org/) -->

<svg
   xmlns:dc="http://purl.org/dc/elements/1.1/"
   xmlns:cc="http://creativecommons.org/ns#"
   xmlns:rdf="http://www.w3.org/1999/02/22-rdf-syntax-ns#"
   xmlns:svg="http://www.w3.org/2000/svg"
   xmlns="http://www.w3.org/2000/svg"
   xmlns:sodipodi="http://sodipodi.sourceforge.net/DTD/sodipodi-0.dtd"
   xmlns:inkscape="http://www.inkscape.org/namespaces/inkscape"
   width="12"
   height="12"
   id="svg3829"
   version="1.1"
   inkscape:version="0.92.2 2405546, 2018-03-11"
   sodipodi:docname="pb_hardware_12.svg">
  <defs
     id="defs3831">
    <inkscape:perspective
       sodipodi:type="inkscape:persp3d"
       inkscape:vp_x="0 : 526.18109 : 1"
       inkscape:vp_y="0 : 1000 : 0"
       inkscape:vp_z="744.09448 : 526.18109 : 1"
       inkscape:persp3d-origin="372.04724 : 350.78739 : 1"
       id="perspective3837" />
    <inkscape:perspective
       id="perspective3815"
       inkscape:persp3d-origin="0.5 : 0.33333333 : 1"
       inkscape:vp_z="1 : 0.5 : 1"
       inkscape:vp_y="0 : 1000 : 0"
       inkscape:vp_x="0 : 0.5 : 1"
       sodipodi:type="inkscape:persp3d" />
  </defs>
  <sodipodi:namedview
     id="base"
     pagecolor="#ffffff"
     bordercolor="#666666"
     borderopacity="1.0"
     inkscape:pageopacity="0.0"
     inkscape:pageshadow="2"
     inkscape:zoom="64"
     inkscape:cx="4.5427346"
     inkscape:cy="6.0621144"
     inkscape:document-units="px"
     inkscape:current-layer="layer1"
     showgrid="false"
     inkscape:window-width="1600"
     inkscape:window-height="873"
     inkscape:window-x="0"
     inkscape:window-y="27"
     inkscape:window-maximized="1" />
  <metadata
     id="metadata3834">
    <rdf:RDF>
      <cc:Work
         rdf:about="">
        <dc:format>image/svg+xml</dc:format>
        <dc:type
           rdf:resource="http://purl.org/dc/dcmitype/StillImage" />
        <dc:title />
      </cc:Work>
    </rdf:RDF>
  </metadata>
  <g
     inkscape:label="Layer 1"
     inkscape:groupmode="layer"
     id="layer1"
     transform="translate(-388.28571,-626.38001)">
    <rect
       style="display:inline;opacity:0;fill:#808080;fill-opacity:0;stroke:none;stroke-width:0.49851313"
       id="rect10647-9"
       width="11.739312"
       height="11.868119"
       x="388.44229"
       y="626.38"
       inkscape:label="bbox" />
    <path
       inkscape:connector-curvature="0"
       style="fill:#808080;fill-opacity:0;stroke:#808080;stroke-width:1;stroke-linecap:round;stroke-linejoin:miter;stroke-miterlimit:4;stroke-dasharray:none;stroke-opacity:1"
       d="m 392.78571,637.88001 v -2"
       id="path10756-0"
       sodipodi:nodetypes="cc" />
    <g
       id="g849">
      <path
         style="color:#000000;display:inline;overflow:visible;visibility:visible;fill:#808080;fill-opacity:0;fill-rule:nonzero;stroke:#808080;stroke-width:1;stroke-linecap:round;stroke-linejoin:round;stroke-miterlimit:4;stroke-dasharray:none;stroke-dashoffset:0;stroke-opacity:1;marker:none;enable-background:accumulate"
         d="m 390.78401,630.88001 h -2.00103 v 5 h 2.00273 v 2 h 4 v -2 h 5 v -5 h -1"
         id="path10704-0"
         sodipodi:nodetypes="cccccccccc"
         inkscape:connector-curvature="0" />
      <g
         id="g842">
        <path
           sodipodi:nodetypes="cccc"
           id="path10686-6"
           d="m 393.78571,632.88001 v -4 h 4 v 4"
           style="color:#000000;display:inline;overflow:visible;visibility:visible;fill:#808080;fill-opacity:0;stroke:#808080;stroke-width:1;stroke-linecap:round;stroke-linejoin:round;stroke-miterlimit:0.2;stroke-dasharray:none;stroke-dashoffset:0;stroke-opacity:1;marker:none;enable-background:accumulate"
           inkscape:connector-curvature="0" />
        <path
           style="color:#000000;clip-rule:nonzero;display:inline;overflow:visible;visibility:visible;opacity:1;isolation:auto;mix-blend-mode:normal;color-interpolation:sRGB;color-interpolation-filters:linearRGB;solid-color:#000000;solid-opacity:1;fill:#808080;fill-opacity:1;fill-rule:nonzero;stroke:none;stroke-width:1;stroke-linecap:round;stroke-linejoin:round;stroke-miterlimit:4;stroke-dasharray:none;stroke-dashoffset:0;stroke-opacity:1;paint-order:normal;color-rendering:auto;image-rendering:auto;shape-rendering:auto;text-rendering:auto;enable-background:accumulate"
           d="M 8.5 5 A 1.5 1.5 0 0 0 7 6.5 A 1.5 1.5 0 0 0 8.5 8 A 1.5 1.5 0 0 0 10 6.5 A 1.5 1.5 0 0 0 8.5 5 z M 8.1992188 6 L 8.8007812 6 C 8.9115813 6 9 6.0884187 9 6.1992188 L 9 6.8007812 C 9 6.9115813 8.9115813 7 8.8007812 7 L 8.1992188 7 C 8.0884187 7 8 6.9115813 8 6.8007812 L 8 6.1992188 C 8 6.0884187 8.0884187 6 8.1992188 6 z "
           transform="translate(388.28571,626.38001)"
           id="path4541" />
        <path
           style="color:#000000;clip-rule:nonzero;display:inline;overflow:visible;visibility:visible;opacity:1;isolation:auto;mix-blend-mode:normal;color-interpolation:sRGB;color-interpolation-filters:linearRGB;solid-color:#000000;solid-opacity:1;fill:#808080;fill-opacity:1;fill-rule:nonzero;stroke:none;stroke-width:1;stroke-linecap:round;stroke-linejoin:round;stroke-miterlimit:4;stroke-dasharray:none;stroke-dashoffset:0;stroke-opacity:1;paint-order:normal;color-rendering:auto;image-rendering:auto;shape-rendering:auto;text-rendering:auto;enable-background:accumulate"
           d="M 4.5 5 A 1.5 1.5 0 0 0 3 6.5 A 1.5 1.5 0 0 0 4.5 8 A 1.5 1.5 0 0 0 6 6.5 A 1.5 1.5 0 0 0 4.5 5 z M 4.1992188 6 L 4.8007812 6 C 4.9115813 6 5 6.0884187 5 6.1992188 L 5 6.8007812 C 5 6.9115813 4.9115813 7 4.8007812 7 L 4.1992188 7 C 4.0884187 7 4 6.9115813 4 6.8007812 L 4 6.1992188 C 4 6.0884187 4.0884187 6 4.1992188 6 z "
           transform="translate(388.28571,626.38001)"
           id="path4541-3" />
      </g>
    </g>
  </g>
</svg>
