<?xml version="1.0" encoding="UTF-8" standalone="no"?>
<!-- Created with Inkscape (http://www.inkscape.org/) -->

<svg
   xmlns:dc="http://purl.org/dc/elements/1.1/"
   xmlns:cc="http://creativecommons.org/ns#"
   xmlns:rdf="http://www.w3.org/1999/02/22-rdf-syntax-ns#"
   xmlns:svg="http://www.w3.org/2000/svg"
   xmlns="http://www.w3.org/2000/svg"
   xmlns:xlink="http://www.w3.org/1999/xlink"
   xmlns:sodipodi="http://sodipodi.sourceforge.net/DTD/sodipodi-0.dtd"
   xmlns:inkscape="http://www.inkscape.org/namespaces/inkscape"
   version="1.0"
   width="16"
   height="16"
   id="svg2"
   sodipodi:version="0.32"
   inkscape:version="0.92.2 2405546, 2018-03-11"
   sodipodi:docname="pb_mplayer_16.svg"
   inkscape:output_extension="org.inkscape.output.svg.inkscape">
  <metadata
     id="metadata31">
    <rdf:RDF>
      <cc:Work
         rdf:about="">
        <dc:format>image/svg+xml</dc:format>
        <dc:type
           rdf:resource="http://purl.org/dc/dcmitype/StillImage" />
        <dc:title></dc:title>
      </cc:Work>
    </rdf:RDF>
  </metadata>
  <sodipodi:namedview
     inkscape:window-height="873"
     inkscape:window-width="1600"
     inkscape:pageshadow="2"
     inkscape:pageopacity="0.0"
     guidetolerance="10000"
     gridtolerance="10000"
     objecttolerance="10000"
     borderopacity="1.0"
     bordercolor="#666666"
     pagecolor="#ffffff"
     id="base"
     width="48px"
     height="48px"
     showgrid="true"
     inkscape:zoom="45.254834"
     inkscape:cx="8.9966814"
     inkscape:cy="3.6476023"
     inkscape:window-x="0"
     inkscape:window-y="27"
     inkscape:current-layer="svg2"
     inkscape:window-maximized="1"
     inkscape:object-paths="false"
     inkscape:snap-nodes="false" />
  <defs
     id="defs4">
    <linearGradient
       id="linearGradient3655">
      <stop
         style="stop-color:white;stop-opacity:1"
         offset="0"
         id="stop3657" />
      <stop
         style="stop-color:white;stop-opacity:0"
         offset="1"
         id="stop3659" />
    </linearGradient>
    <linearGradient
       x1="108.11752"
       y1="16.246464"
       x2="108.97424"
       y2="24.144896"
       id="linearGradient1969"
       xlink:href="#linearGradient3655"
       gradientUnits="userSpaceOnUse"
       gradientTransform="rotate(-90,110.9107,115.4338)" />
    <linearGradient
       x1="108.11752"
       y1="16.246464"
       x2="108.97424"
       y2="24.144896"
       id="linearGradient1971"
       xlink:href="#linearGradient3655"
       gradientUnits="userSpaceOnUse"
       gradientTransform="rotate(90,135.13591,85.778885)" />
    <linearGradient
       x1="108.11752"
       y1="16.246464"
       x2="108.97424"
       y2="24.144896"
       id="linearGradient1973"
       xlink:href="#linearGradient3655"
       gradientUnits="userSpaceOnUse" />
    <linearGradient
       x1="108.11752"
       y1="16.246464"
       x2="108.97424"
       y2="24.144896"
       id="linearGradient1975"
       xlink:href="#linearGradient3655"
       gradientUnits="userSpaceOnUse"
       gradientTransform="rotate(180,108.0119,88.80525)" />
  </defs>
  <g
     id="layer1"
     transform="matrix(0.07214061,0,0,0.0729343,0.23935812,1.857519)"
     style="fill:#808080;stroke-width:3.00003004">
    <g
       id="g2020"
       style="fill:#808080;stroke-width:3.00003004">
      <g
         transform="matrix(1,0,0,0.930282,0,0.766728)"
         id="g3763"
         style="fill:#808080;stroke-width:3.00003004">
        <g
           id="g3758"
           style="fill:#808080;stroke-width:3.00003004">
          <path
             style="color:#303030;display:inline;overflow:visible;visibility:visible;fill:#808080;fill-opacity:1;fill-rule:nonzero;stroke:none;stroke-width:114.34754181;stroke-linecap:round;stroke-linejoin:round;stroke-miterlimit:0;stroke-dasharray:none;stroke-dashoffset:0;stroke-opacity:1;marker:none"
             d="M 38.0625,1.0190707 C 26.826833,0.97516862 16.336739,3.0622501 7,4.7968726 5.7974829,5.1209824 4.1498189,5.7916993 3.2031198,6.7343708 0.84274873,8.7274412 -0.47864304,12.265748 -0.17704835,15.40625 L 2.8229818,29.34375 C 0.95136157,29.3909 -0.31468301,31.495603 -0.15625,32.96875 0.40222238,38.144185 5.1693597,43.144961 10.9375,43.019493 15.577935,43.152077 25.375,40.125 25.375,40.125 24.786388,38.669426 24.373843,37.147236 24.25,35.53125 c -0.0043,-0.04546 -0.03104,-0.07934 -0.03125,-0.125 -4e-6,-0.0023 -5e-6,-0.02897 0,-0.03125 H 8.8984594 c -1.6425252,0 -3.0754475,-1.339404 -3.0754475,-3 V 12.828135 c 0,-1.660596 0.7063524,-2.808974 2.3488777,-2.808974 H 40.547985 c 1.642527,0 2.775403,1.007751 2.775403,2.668347 V 30.6875 c 0.688527,1.413679 1.893672,3.010169 1.895362,4.6875 6.5e-5,0.06436 0.0011,0.123403 0,0.1875 1.943838,-1.211354 2.910283,-4.993415 2.604683,-7.3125 L 45.423409,14.28125 C 46.67397,13.504159 47.935029,12.952798 47.823433,10.6875 47.862374,5.1323993 44.608436,1.162719 38.0625,1.0190707 Z"
             transform="matrix(4.6205596,0,0,4.9127871,-2.4998762,-18.469218)"
             id="rect1872"
             inkscape:connector-curvature="0"
             sodipodi:nodetypes="cccccccccccssssssccccccc" />
        </g>
        <g
           id="g3753"
           style="fill:#808080;stroke-width:3.00003004" />
      </g>
      <g
         id="g2012"
         style="fill:#808080;stroke-width:3.00003004">
        <g
           id="g2006"
           style="fill:#808080;stroke-width:3.00003004" />
      </g>
      <g
         transform="translate(0,-10)"
         id="g3675"
         style="fill:#808080;stroke-width:3.00003004">
        <path
           d="m 135.30024,128.4968 55.44727,27.42194 -55.44727,27.42194 z"
           style="fill:#808080;fill-opacity:1;fill-rule:evenodd;stroke:none;stroke-width:3.00003004px;stroke-linecap:butt;stroke-linejoin:miter;stroke-opacity:1"
           id="path6330"
           inkscape:connector-curvature="0"
           sodipodi:nodetypes="cccc" />
      </g>
    </g>
  </g>
  <path
     style="font-style:normal;font-variant:normal;font-weight:bold;font-stretch:normal;font-size:42.40975189px;line-height:125%;font-family:'Century Gothic';text-align:start;writing-mode:lr-tb;text-anchor:start;fill:#808080;fill-opacity:1;stroke:none;stroke-width:1px;stroke-linecap:butt;stroke-linejoin:miter;stroke-opacity:1"
     d="m 3.6839801,5.546 -0.958324,4.676717 h 1.03124 l 0.60416,-2.958303 1.166655,2.958303 h 0.927074 l 1.187489,-2.958303 0.593744,2.958303 h 0.687493 l 0.27083,-0.30208 -0.874991,-4.374956 H 7.2985271 L 5.9964571,8.806065 4.7152191,5.545681 Z M 10,5.546 9.9999998,9.3160323 11,8.9612992 V 8.244 c 0.537913,1e-6 1.063621,-0.024559 1.267227,-0.073349 0.346877,-0.08484 0.621816,-0.241977 0.822909,-0.458329 0.2036,-0.216347 0.302075,-0.485844 0.30208,-0.812492 -5e-6,-0.294825 -0.07332,-0.540003 -0.229164,-0.749993 C 13.009718,5.937739 12.796596,5.784844 12.527641,5.691513 12.261194,5.596073 11.820936,5.545685 11.215154,5.545681 Z m 1,0.875 h 0.454735 c 0.326769,4e-6 0.75394,0.00734 0.866265,0.083002 0.11121,0.074908 0.178995,0.215541 0.179,0.395829 -4e-6,0.103936 0.002,0.212221 -0.05829,0.286456 -0.05782,0.07212 -0.10065,0.10881 -0.203705,0.140623 -0.103061,0.03182 -0.488087,0.04167 -0.752016,0.04167 L 11,7.369 Z"
     id="text7217"
     sodipodi:nodetypes="cccccccccccccccccccsssssccccssssccc"
     inkscape:connector-curvature="0" />
  <path
     style="color:#303030;display:inline;overflow:visible;visibility:visible;opacity:1;fill:#808080;fill-opacity:1;fill-rule:nonzero;stroke:none;stroke-width:13.78605175;stroke-linecap:round;stroke-linejoin:round;stroke-miterlimit:0;stroke-dasharray:none;stroke-dashoffset:0;stroke-opacity:1;marker:none"
     d="m 11.633067,8.902517 c -1.9170519,8.33e-4 -3.4792929,1.582214 -3.4943109,3.521359 -7.2e-5,0.0092 -0.0023,0.01813 -0.0023,0.02735 -7e-6,0.0015 -7e-6,0.003 0,0.0046 -2e-6,7.66e-4 -2e-6,0.0015 0,0.0023 6.9e-5,0.01522 8.33e-4,0.03043 0.0023,0.04558 0.02857,1.930717 1.590061,3.499406 3.5010739,3.496289 1.92615,-0.0031 3.494021,-1.60152 3.492056,-3.553269 -0.002,-1.951748 -1.572667,-3.545006 -3.498819,-3.544151 z m 0,1.005126 c 1.386781,-6e-4 2.50321,1.130642 2.504631,2.541304 0.0014,1.410662 -1.111088,2.543601 -2.497868,2.545863 -1.386782,0.0023 -2.5060939,-1.128366 -2.5091409,-2.539025 7e-6,-0.0015 7e-6,-0.003 0,-0.0046 2.06e-4,-1.410662 1.1155959,-2.542969 2.5023779,-2.543584 z"
     id="path5443"
     inkscape:connector-curvature="0" />
</svg>
