<?xml version="1.0" encoding="UTF-8"?>
<!DOCTYPE svg PUBLIC "-//W3C//DTD SVG 1.1//EN" "http://www.w3.org/Graphics/SVG/1.1/DTD/svg11.dtd">
<!-- Creator: CorelDRAW -->
<svg xmlns="http://www.w3.org/2000/svg" xml:space="preserve" width="4.585mm" height="4.4467mm" style="shape-rendering:geometricPrecision; text-rendering:geometricPrecision; image-rendering:optimizeQuality; fill-rule:evenodd; clip-rule:evenodd"
viewBox="0 0 0.26727 0.259208"
 xmlns:xlink="http://www.w3.org/1999/xlink">
 <defs>
  <style type="text/css">
   <![CDATA[
    .fil0 {fill:gray}
   ]]>
  </style>
 </defs>
 <g id="Layer_x0020_1">
  <metadata id="CorelCorpID_0Corel-Layer"/>
  <path class="fil0" d="M0.26727 0.111367l-0.0358964 -0.0096532 -0.0102011 -0.0227223c0.00591083,-0.00853398 0.0156923,-0.023212 0.0193589,-0.0299039l-0.0265521 -0.0250365c-0.0103294,0.00638883 -0.0220869,0.0143457 -0.0334772,0.0218713 -0.00839408,-0.00483826 -0.0130691,-0.00723407 -0.019866,-0.0116759 -0.00298456,-0.0130108 -0.00383563,-0.0171263 -0.00787528,-0.0342059 -0.0127485,-5.2463e-005 -0.0255029,-5.2463e-005 -0.0382514,0 -0.00404548,0.0170796 -0.00489655,0.0211951 -0.00788111,0.0342059 -0.00679105,0.00444187 -0.0114719,0.00683768 -0.0198602,0.0116759 -0.0113961,-0.00752553 -0.0231537,-0.0154824 -0.0334772,-0.0218713l-0.0265521 0.0250365c0.00366658,0.00669195 0.0134422,0.0213699 0.0193589,0.0299039l-0.010207 0.0227223 -0.0358905 0.0096532 0 0.0364735 0.0358905 0.0096532 0.010207 0.0227223c-0.00591666,0.00853398 -0.0156923,0.023212 -0.0193589,0.0299039l0.0265521 0.0250365c0.0103236,-0.00638883 0.0220811,-0.0143399 0.0334772,-0.0218713 0.00838825,0.00483826 0.0130691,0.00723407 0.0198602,0.0116759 0.00298456,0.0130108 0.00383563,0.0171263 0.00788111,0.0342059 0.0127485,5.2463e-005 0.0255029,5.2463e-005 0.0382514,0 0.00403965,-0.0170796 0.00489072,-0.0211951 0.00787528,-0.0342059 0.00679688,-0.00444187 0.0114719,-0.00683768 0.019866,-0.0116759 0.0113903,0.00753136 0.0231479,0.0154824 0.0334772,0.0218713l0.0265521 -0.0250365c-0.00366658,-0.00669195 -0.013448,-0.0213699 -0.0193589,-0.0299039l0.0102011 -0.0227223 0.0358964 -0.0096532 0 -0.0364735zm-0.133635 -0.0312505c0.0273332,0 0.0494843,0.0221511 0.0494843,0.0494843 0,0.0273332 -0.0221511,0.0494843 -0.0494843,0.0494843 -0.0273332,0 -0.0494843,-0.0221511 -0.0494843,-0.0494843 0,-0.0273332 0.0221511,-0.0494843 0.0494843,-0.0494843z"/>
 </g>
</svg>
